<svg width="24" height="25" viewBox="0 0 24 25" fill="none" xmlns="http://www.w3.org/2000/svg">
<path d="M12 4C15.3137 4 18 6.68629 18 10V16C18 18.9727 15.8381 21.4405 13.0008 21.9169L13 23.5C13 24.0523 12.5523 24.5 12 24.5C11.4477 24.5 11 24.0523 11 23.5L11.0002 21.9171C8.16238 21.4411 6 18.9731 6 16V10C6 6.68629 8.68629 4 12 4ZM12 6C9.79086 6 8 7.79086 8 10H10.5C11.0523 10 11.5 10.4477 11.5 11C11.5 11.5523 11.0523 12 10.5 12H8V14H10.5C11.0523 14 11.5 14.4477 11.5 15C11.5 15.5523 11.0523 16 10.5 16H8C8 18.2091 9.79086 20 12 20C14.2091 20 16 18.2091 16 16H15C14.4477 16 14 15.5523 14 15C14 14.4872 14.386 14.0645 14.8834 14.0067L15 14H16V12H15C14.4477 12 14 11.5523 14 11C14 10.4872 14.386 10.0645 14.8834 10.0067L15 10H16C16 7.79086 14.2091 6 12 6ZM12 0C17.1894 0 21.4556 3.95287 21.9518 9.01189C22.8229 9.11116 23.5 9.8515 23.5 10.75V15.25C23.5 16.2165 22.7165 17 21.75 17C20.7835 17 20 16.2165 20 15.25V10C20 5.58172 16.4183 2 12 2C7.58172 2 4 5.58172 4 10V15.25C4 16.2165 3.2165 17 2.25 17C1.2835 17 0.5 16.2165 0.5 15.25V10.75C0.5 9.8515 1.17713 9.11116 2.04893 9.01143C2.54442 3.95287 6.81059 0 12 0Z" fill="#99A2AD"/>
</svg>
